<svg width="177" height="95" viewBox="0 0 177 95" fill="none" xmlns="http://www.w3.org/2000/svg">
<g clip-path="url(#clip0_0_234)">
<path d="M102.932 11.57C106.126 11.57 108.715 8.97996 108.715 5.785C108.715 2.59003 106.126 0 102.932 0C99.7379 0 97.1487 2.59003 97.1487 5.785C97.1487 8.97996 99.7379 11.57 102.932 11.57Z" fill="#E3767D"/>
<path d="M102.932 34.7141C106.126 34.7141 108.715 32.1241 108.715 28.9291C108.715 25.7342 106.126 23.1441 102.932 23.1441C99.7379 23.1441 97.1487 25.7342 97.1487 28.9291C97.1487 32.1241 99.7379 34.7141 102.932 34.7141Z" fill="#459FD8"/>
<path d="M114.5 23.1421C117.694 23.1421 120.283 20.552 120.283 17.3571C120.283 14.1621 117.694 11.5721 114.5 11.5721C111.306 11.5721 108.717 14.1621 108.717 17.3571C108.717 20.552 111.306 23.1421 114.5 23.1421Z" fill="#43B178"/>
<path d="M25.4118 8.41019H19.2669C18.8094 8.41019 18.4351 8.78463 18.4351 9.24227V18.1392C17.884 17.7211 17.2747 17.3592 16.6093 17.0554C15.2201 16.4314 13.7 16.1173 12.0426 16.1173C9.7115 16.1173 7.63407 16.6769 5.80825 17.7898C3.98244 18.9068 2.56213 20.4274 1.54733 22.3578C0.534604 24.2841 0.0292816 26.4828 0.0292816 28.952C0.0292816 31.4212 0.534604 33.62 1.54941 35.5441C2.56421 37.4704 3.9762 38.9931 5.7833 40.1081C7.59456 41.2251 9.68031 41.7805 12.0447 41.7805C13.7021 41.7805 15.2222 41.4352 16.6113 40.7425C17.3392 40.3785 17.9963 39.9416 18.5869 39.4486V40.443C18.5869 40.9006 18.9612 41.275 19.4187 41.275H25.4139C25.8714 41.275 26.2457 40.9006 26.2457 40.443V9.24227C26.2457 8.78463 25.8714 8.41019 25.4139 8.41019H25.4118ZM13.1219 34.7225C9.5597 35.0054 6.60471 32.0577 6.88336 28.4902C7.10379 25.6841 9.3767 23.4104 12.182 23.1899C15.7483 22.9112 18.695 25.8671 18.4122 29.4284C18.1897 32.2304 15.9209 34.4999 13.1198 34.7225H13.1219Z" fill="#104050"/>
<path d="M39.49 18.8569C39.49 18.8569 39.4734 18.8756 39.465 18.886V17.4569C39.465 16.9972 39.0928 16.6248 38.6332 16.6248H32.4883C32.0287 16.6248 31.6565 16.9972 31.6565 17.4569V40.4138C31.6565 40.8736 32.0287 41.2459 32.4883 41.2459H38.6332C39.0928 41.2459 39.465 40.8736 39.465 40.4138V28.1387C39.465 26.5494 39.8456 25.3575 40.6067 24.5628C41.3678 23.7682 42.4076 23.3709 43.726 23.3709C44.3685 23.3709 44.9425 23.4728 45.4499 23.6746C45.504 23.6954 45.5559 23.7183 45.6079 23.7412C46.1091 23.9658 46.6747 23.5893 46.6747 23.0401V17.2406C46.6747 16.8245 46.3358 16.4772 45.9199 16.473C45.8824 16.473 45.8429 16.473 45.8055 16.473C43.1354 16.473 41.0309 17.2676 39.4921 18.8569H39.49Z" fill="#104050"/>
<path d="M86.2146 21.9792C85.1333 20.1196 83.6631 18.6655 81.804 17.6171C79.9449 16.5687 77.7801 16.0445 75.3138 16.0445C72.8475 16.0445 70.5642 16.602 68.5699 17.719C66.5757 18.834 65.0036 20.365 63.8557 22.31C62.7057 24.255 62.1318 26.4433 62.1318 28.8771C62.1318 31.311 62.7223 33.6116 63.9056 35.5712C65.0888 37.5328 66.7109 39.0638 68.7737 40.1621C70.8345 41.2605 73.201 41.8097 75.8711 41.8097C77.9673 41.8097 79.8763 41.4623 81.6002 40.7696C83.0683 40.1788 84.3535 39.3134 85.4535 38.1693C85.7717 37.8386 85.7738 37.3144 85.4473 36.9919L82.2947 33.8758C81.9787 33.5638 81.4733 33.5555 81.1468 33.8571C80.5375 34.425 79.8596 34.8681 79.1131 35.1905C78.1315 35.6128 77.0502 35.825 75.869 35.825C74.5506 35.825 73.4111 35.5462 72.4462 34.9887C71.4833 34.4312 70.7389 33.6283 70.2148 32.5799C70.0526 32.2554 69.9175 31.91 69.8052 31.5481L86.7823 31.467C87.1733 31.467 87.5081 31.1903 87.5933 30.8076C87.6724 30.4539 87.7264 30.1232 87.7597 29.8153C87.8096 29.3265 87.8346 28.8439 87.8346 28.3696C87.8346 25.969 87.2939 23.8389 86.2125 21.9792H86.2146ZM72.2465 22.8425C73.1407 22.2684 74.1992 21.9792 75.4157 21.9792C76.5324 21.9792 77.4869 22.233 78.2813 22.7406C79.0756 23.2482 79.6745 23.9658 80.0801 24.8957C80.2402 25.2618 80.3608 25.6716 80.4627 26.1084L69.8031 26.1687C69.905 25.838 70.0235 25.5218 70.167 25.2243C70.6557 24.2092 71.3503 23.4167 72.2465 22.8404V22.8425Z" fill="#104050"/>
<path d="M57.4674 16.6394H51.3224C50.863 16.6394 50.4906 17.0119 50.4906 17.4715V40.4138C50.4906 40.8734 50.863 41.2459 51.3224 41.2459H57.4674C57.9268 41.2459 58.2992 40.8734 58.2992 40.4138V17.4715C58.2992 17.0119 57.9268 16.6394 57.4674 16.6394Z" fill="#104050"/>
<path d="M25.3825 46.7189H19.2376C18.7801 46.7189 18.4058 47.0933 18.4058 47.551V56.4479C17.8547 56.0298 17.2454 55.6678 16.58 55.3641C15.1908 54.7401 13.6707 54.426 12.0133 54.426C9.68221 54.426 7.60478 54.9855 5.77896 56.0984C3.95315 57.2155 2.53284 58.7361 1.51804 60.6665C0.503232 62.5928 -0.00209045 64.7895 -0.00209045 67.2586C-0.00209045 69.7278 0.503232 71.9266 1.51804 73.8508C2.53284 75.777 3.94483 77.2997 5.75193 78.4147C7.56319 79.5317 9.64894 80.0872 12.0133 80.0872C13.6707 80.0872 15.1908 79.7418 16.58 79.0491C17.3078 78.6851 17.9649 78.2483 18.5555 77.7553V78.7496C18.5555 79.2072 18.9298 79.5817 19.3873 79.5817H25.3825C25.84 79.5817 26.2144 79.2072 26.2144 78.7496V47.5489C26.2144 47.0912 25.84 46.7168 25.3825 46.7168V46.7189ZM13.0926 73.0312C9.53041 73.3141 6.57542 70.3664 6.85407 66.7989C7.0745 63.9928 9.34741 61.7191 12.1527 61.4986C15.719 61.2199 18.6657 64.1758 18.3829 67.7371C18.1604 70.5391 15.8916 72.8086 13.0905 73.0312H13.0926Z" fill="#104050"/>
<path d="M104.955 78.1775C104.267 78.6643 103.479 79.0783 102.587 79.4257C101.47 79.8667 100.395 80.0892 99.3613 80.0892C96.3939 80.0892 94.1854 79.3986 92.736 78.0174C91.2845 76.634 90.5608 74.6558 90.5608 72.0784V62.2163C90.5608 61.8086 90.2239 61.4778 89.8039 61.4778H87.4145C86.9986 61.4778 86.6576 61.145 86.6576 60.7393V55.7199C86.6576 55.3101 86.9986 54.9793 87.4145 54.9793H89.8039C90.2239 54.9793 90.5608 54.6465 90.5608 54.2367V49.4668C90.5608 49.0466 90.906 48.7013 91.3282 48.7013H97.6041C98.0242 48.7013 98.3694 49.0466 98.3694 49.4668L98.3611 54.2367C98.3611 54.6465 98.7021 54.9793 99.1201 54.9793H102.541C102.963 54.9793 103.3 55.3101 103.3 55.7199V60.7393C103.3 61.145 102.963 61.4778 102.541 61.4778H99.1201C98.7021 61.4778 98.3611 61.8086 98.3611 62.2163V70.1792C98.3611 71.1569 98.542 71.8725 98.9121 72.3281C99.2761 72.7878 99.8438 73.0104 100.613 73.0104C100.911 73.0104 101.26 72.9376 101.661 72.794C101.813 72.7379 101.959 72.6755 102.1 72.6068C102.481 72.4321 102.936 72.5839 103.115 72.9563L105.201 77.256C105.363 77.5805 105.259 77.9674 104.955 78.1775Z" fill="#104050"/>
<path d="M132.548 54.9793H126.553C126.096 54.9793 125.721 55.3537 125.721 55.8114V56.9555C125.056 56.3169 124.286 55.7927 123.413 55.3745C122.082 54.7318 120.585 54.4093 118.927 54.4093C116.661 54.4093 114.644 54.9564 112.868 56.0548C111.092 57.1531 109.69 58.6779 108.661 60.6229C107.627 62.5678 107.112 64.7728 107.112 67.2378C107.112 69.7029 107.627 71.8975 108.661 73.8071C109.69 75.7167 111.098 77.2373 112.895 78.371C114.685 79.5047 116.696 80.0705 118.927 80.0705C120.618 80.0705 122.13 79.7481 123.467 79.1053C124.32 78.6955 125.075 78.1817 125.721 77.566V78.7475C125.717 79.2072 126.089 79.5817 126.551 79.5817C128.549 79.5754 130.55 79.5858 132.55 79.5817C133.01 79.5817 133.38 79.2072 133.38 78.7496C133.38 71.107 133.38 63.4457 133.38 55.8051C133.38 55.3475 133.006 54.9731 132.548 54.9731V54.9793ZM119.72 73.027C116.528 73.027 113.937 70.4393 113.937 67.242C113.937 64.0448 116.528 61.457 119.72 61.457C121.109 61.457 122.384 61.9479 123.382 62.7634C124.677 63.8243 125.503 65.4364 125.503 67.242C125.503 70.4393 122.916 73.027 119.72 73.027Z" fill="#104050"/>
<path d="M81.9932 54.9793H75.8482C75.3888 54.9793 75.0164 55.3518 75.0164 55.8114V78.7538C75.0164 79.2133 75.3888 79.5858 75.8482 79.5858H81.9932C82.4526 79.5858 82.825 79.2133 82.825 78.7538V55.8114C82.825 55.3518 82.4526 54.9793 81.9932 54.9793Z" fill="#104050"/>
<path d="M38.6644 54.9793H32.5195C32.0601 54.9793 31.6877 55.3518 31.6877 55.8114V78.7538C31.6877 79.2133 32.0601 79.5858 32.5195 79.5858H38.6644C39.1238 79.5858 39.4962 79.2133 39.4962 78.7538V55.8114C39.4962 55.3518 39.1238 54.9793 38.6644 54.9793Z" fill="#104050"/>
<path d="M68.7113 54.9793H62.7203C62.2607 54.9793 61.8884 55.3517 61.8884 55.8114V56.554C61.8573 56.527 61.8302 56.5041 61.8011 56.4812C61.2604 56.0402 60.6574 55.6616 59.9878 55.3475C58.6527 54.7234 57.1409 54.4093 55.4524 54.4093C55.4378 54.4093 55.4212 54.4135 55.4066 54.4135C55.3879 54.4135 55.3692 54.4093 55.3484 54.4093C53.0172 54.4093 50.9356 54.9689 49.114 56.0818C47.2882 57.1989 45.8679 58.7195 44.8551 60.6499C43.8403 62.5761 43.3309 64.7728 43.3309 67.242C43.3309 69.7112 43.8403 71.9099 44.8551 73.8341C45.8699 75.7604 47.2778 77.2831 49.089 78.398C50.8961 79.5151 52.986 80.0705 55.3505 80.0705C57.0078 80.0705 58.528 79.7252 59.9129 79.0325C60.5825 78.6997 61.1877 78.3086 61.7387 77.8655V79.3965C61.7387 81.1543 61.1918 82.5064 60.0938 83.4508C58.9958 84.3973 57.4799 84.8716 55.5542 84.8716C54.0653 84.8716 52.776 84.5991 51.678 84.0603C50.7901 83.6235 49.9749 83.0223 49.2284 82.2526C48.9331 81.951 48.4444 81.9385 48.1408 82.2381L44.3665 85.9741C44.0878 86.2507 44.0649 86.6938 44.3082 86.9996C45.4457 88.4245 46.918 89.5499 48.7334 90.3757C50.7776 91.3014 53.1358 91.7695 55.8059 91.7695C58.476 91.7695 60.8009 91.2536 62.8783 90.2218C64.9557 89.188 66.5861 87.7256 67.7735 85.8347C68.9567 83.9397 69.5452 81.7263 69.5452 79.1927V55.8072C69.5452 55.3475 69.173 54.9752 68.7134 54.9752L68.7113 54.9793ZM55.9494 73.0332C52.7573 73.0332 50.1662 70.4455 50.1662 67.2482C50.1662 64.051 52.7573 61.4632 55.9494 61.4632C59.1414 61.4632 61.7325 64.0552 61.7325 67.2482C61.7325 70.4413 59.1456 73.0332 55.9494 73.0332Z" fill="#104050"/>
<path d="M162.647 54.9793H156.652C156.194 54.9793 155.82 55.3537 155.82 55.8114V56.9555C155.155 56.3169 154.385 55.7927 153.512 55.3745C152.181 54.7318 150.684 54.4093 149.026 54.4093C146.76 54.4093 144.743 54.9564 142.967 56.0548C141.191 57.1531 139.789 58.6779 138.76 60.6229C137.726 62.5678 137.211 64.7728 137.211 67.2378C137.211 69.7029 137.726 71.8975 138.76 73.8071C139.789 75.7167 141.197 77.2373 142.994 78.371C144.784 79.5047 146.795 80.0705 149.026 80.0705C150.717 80.0705 152.229 79.7481 153.566 79.1053C154.419 78.6955 155.173 78.1817 155.82 77.566V78.7475C155.816 79.2072 156.188 79.5817 156.65 79.5817C158.648 79.5754 160.649 79.5858 162.649 79.5817C163.109 79.5817 163.481 79.2072 163.481 78.7496C163.481 71.107 163.481 63.4457 163.481 55.8051C163.481 55.3475 163.107 54.9731 162.649 54.9731L162.647 54.9793ZM149.819 73.027C146.627 73.027 144.036 70.4393 144.036 67.242C144.036 64.0448 146.627 61.457 149.819 61.457C151.208 61.457 152.483 61.9479 153.481 62.7634C154.776 63.8243 155.602 65.4364 155.602 67.242C155.602 70.4393 153.015 73.027 149.819 73.027Z" fill="#104050"/>
<path d="M175.96 46.8291H169.815C169.356 46.8291 168.983 47.2017 168.983 47.6612V78.812C168.983 79.2715 169.356 79.6441 169.815 79.6441H175.96C176.42 79.6441 176.792 79.2715 176.792 78.812V47.6612C176.792 47.2017 176.42 46.8291 175.96 46.8291Z" fill="#104050"/>
<path d="M96.7411 87.8795C94.4308 87.8795 92.6985 89.8141 92.6985 92.1522C92.6985 93.8039 93.7861 94.9875 95.56 94.9875C97.3338 94.9875 98.4401 93.9079 98.831 93.0966H97.6083C97.1924 93.5751 96.5581 93.9516 95.7471 93.9516C94.566 93.9516 93.8402 93.3878 93.8402 92.1106C93.8402 92.017 93.8402 91.9234 93.8527 91.8298H99.3072L99.4133 91.2245C99.7356 89.3981 98.648 87.8795 96.7411 87.8795ZM98.3132 90.8355H94.0544C94.4578 89.6664 95.4248 88.8863 96.606 88.8863C97.7871 88.8863 98.5004 89.7059 98.3132 90.8355Z" fill="#43B178"/>
<path d="M79.0881 87.8795C76.7778 87.8795 75.0455 89.8141 75.0455 92.1522C75.0455 93.8039 76.1331 94.9875 77.907 94.9875C79.6808 94.9875 80.7871 93.9079 81.178 93.0966H79.9553C79.5394 93.5751 78.9051 93.9516 78.0941 93.9516C76.913 93.9516 76.1872 93.3878 76.1872 92.1106C76.1872 92.017 76.1872 91.9234 76.1997 91.8298H81.6542L81.7603 91.2245C82.0826 89.3981 80.995 87.8795 79.0881 87.8795ZM80.6602 90.8355H76.4014C76.8048 89.6664 77.7718 88.8863 78.953 88.8863C80.1341 88.8863 80.8474 89.7059 80.6602 90.8355Z" fill="#43B178"/>
<path d="M84.3327 84.9236H85.4618L83.7151 94.8648H82.5859L84.3327 84.9236Z" fill="#43B178"/>
<path d="M87.7431 84.9236H88.8722L87.9053 90.4194H89.1135L91.4363 88.0002H92.8337L89.9058 91.0643L91.7045 94.8669H90.5234L88.9242 91.4678H87.716L87.1255 94.8669H85.9963L87.7431 84.9257V84.9236Z" fill="#43B178"/>
<path d="M105.887 84.9236H107.016L106.049 90.4194H107.257L109.58 88.0002H110.977L108.05 91.0643L109.848 94.8669H108.667L107.068 91.4678H105.86L105.269 94.8669H104.14L105.887 84.9257V84.9236Z" fill="#43B178"/>
<path d="M127.566 88.0127H128.695L128.481 89.2628L131.421 87.865L131.192 89.1817L128.277 90.4714L127.485 94.8773H126.355L127.564 88.0127H127.566Z" fill="#43B178"/>
<path d="M135.876 88.0002H137.057L138.252 93.5356L141.328 88.0002H142.632L138.643 94.8648H137.475L135.876 88.0002Z" fill="#43B178"/>
<path d="M155.685 92.1377C155.685 89.7059 157.525 87.8795 159.728 87.8795C160.707 87.8795 161.58 88.3497 161.89 88.955L162.601 84.9236H163.731L162.227 93.4815L162.468 94.8648H161.314L161.113 93.858C160.48 94.6651 159.393 94.9875 158.467 94.9875C156.802 94.9875 155.687 93.8725 155.687 92.1397L155.685 92.1377ZM158.734 93.9516C160.252 93.9516 161.526 92.5537 161.526 90.8875C161.526 89.785 160.869 88.9134 159.619 88.9134C158.101 88.9134 156.839 90.3113 156.839 91.9775C156.839 93.107 157.511 93.9516 158.734 93.9516Z" fill="#43B178"/>
<path d="M151.578 88.0127H152.707L152.493 89.2628L155.433 87.865L155.205 89.1817L152.289 90.4714L151.497 94.8773H150.368L151.576 88.0127H151.578Z" fill="#43B178"/>
<path d="M173.145 88.0127H174.274L174.06 89.2628L177 87.865L176.771 89.1817L173.856 90.4714L173.064 94.8773H171.934L173.143 88.0127H173.145Z" fill="#43B178"/>
<path d="M114.885 87.8774C112.575 87.8774 110.842 89.812 110.842 92.1501C110.842 93.8018 111.93 94.9854 113.704 94.9854C115.478 94.9854 116.584 93.9058 116.975 93.0945H115.752C115.336 93.573 114.702 93.9495 113.891 93.9495C112.71 93.9495 111.984 93.3858 111.984 92.1085C111.984 92.0149 111.984 91.9213 111.996 91.8277H117.451L117.557 91.2224C117.879 89.396 116.792 87.8774 114.885 87.8774ZM116.457 90.8334H112.198C112.602 89.6643 113.569 88.8843 114.75 88.8843C115.931 88.8843 116.644 89.7038 116.457 90.8334Z" fill="#43B178"/>
<path d="M122.662 87.892C120.352 87.892 118.62 89.8266 118.62 92.1647C118.62 93.8164 119.707 95 121.481 95C123.255 95 124.361 93.9204 124.752 93.1091H123.529C123.114 93.5876 122.479 93.9641 121.668 93.9641C120.487 93.9641 119.761 93.4003 119.761 92.1231C119.761 92.0295 119.761 91.9359 119.774 91.8423H125.228L125.334 91.2369C125.657 89.4105 124.569 87.892 122.662 87.892ZM124.234 90.8479H119.976C120.379 89.6789 121.346 88.8988 122.527 88.8988C123.708 88.8988 124.422 89.7184 124.234 90.8479Z" fill="#43B178"/>
<path d="M146.674 87.8774C144.364 87.8774 142.632 89.812 142.632 92.1501C142.632 93.8018 143.719 94.9854 145.493 94.9854C147.267 94.9854 148.373 93.9058 148.764 93.0945H147.542C147.126 93.573 146.491 93.9495 145.68 93.9495C144.499 93.9495 143.774 93.3858 143.774 92.1085C143.774 92.0149 143.774 91.9213 143.786 91.8277H149.241L149.347 91.2224C149.669 89.396 148.581 87.8774 146.674 87.8774ZM148.247 90.8334H143.988C144.391 89.6643 145.358 88.8843 146.539 88.8843C147.72 88.8843 148.434 89.7038 148.247 90.8334Z" fill="#43B178"/>
<path d="M168.241 87.8774C165.931 87.8774 164.199 89.812 164.199 92.1501C164.199 93.8018 165.286 94.9854 167.06 94.9854C168.834 94.9854 169.94 93.9058 170.331 93.0945H169.108C168.692 93.573 168.058 93.9495 167.247 93.9495C166.066 93.9495 165.34 93.3858 165.34 92.1085C165.34 92.0149 165.34 91.9213 165.353 91.8277H170.807L170.913 91.2224C171.236 89.396 170.148 87.8774 168.241 87.8774ZM169.813 90.8334H165.554C165.958 89.6643 166.925 88.8843 168.106 88.8843C169.287 88.8843 170 89.7038 169.813 90.8334Z" fill="#43B178"/>
</g>
<defs>
<clipPath id="clip0_0_234">
<rect width="177" height="95" fill="white"/>
</clipPath>
</defs>
</svg>
